<svg width="169" height="169" viewBox="0 0 169 169" fill="none" xmlns="http://www.w3.org/2000/svg">
<path d="M84.126 0C130.588 0 168.253 37.6644 168.253 84.126C168.253 130.588 130.588 168.253 84.126 168.253C37.6644 168.253 0 130.588 0 84.126C0.00020204 37.6646 37.6646 0.000202065 84.126 0ZM84.7227 36.3096C57.985 36.3097 36.3097 57.985 36.3096 84.7227C36.3096 111.46 57.985 133.136 84.7227 133.136C111.46 133.136 133.136 111.46 133.136 84.7227C133.136 57.985 111.46 36.3096 84.7227 36.3096Z" fill="#8D957B" fill-opacity="0.7"/>
<circle cx="84.7229" cy="121.032" r="36.3098" fill="#1F1F1F" fill-opacity="0.7"/>
<circle cx="121.032" cy="84.7229" r="36.3098" fill="#1F1F1F" fill-opacity="0.7"/>
<circle cx="84.7229" cy="48.4128" r="36.3098" fill="#1F1F1F" fill-opacity="0.7"/>
<circle cx="48.4128" cy="84.7229" r="36.3098" fill="#1F1F1F" fill-opacity="0.7"/>
</svg>
